<svg xmlns="http://www.w3.org/2000/svg" width="17" height="14" viewBox="0 0 17 14">
    <path fill="#989898" d="M17.063 1.663c-.477.7-1.072 1.323-1.754 1.826.01.153.01.306.01.46C15.32 8.618 11.801 14 5.37 14 3.39 14 1.55 13.42 0 12.414c.281.033.552.044.844.044 1.635 0 3.14-.558 4.342-1.51-1.537-.032-2.826-1.05-3.27-2.45.217.033.433.055.66.055.315 0 .629-.044.92-.12C1.896 8.105.694 6.683.694 4.966v-.044c.465.262 1.007.426 1.58.448C1.333 4.736.716 3.653.716 2.428c0-.656.173-1.258.476-1.783C2.912 2.79 5.5 4.19 8.4 4.342c-.054-.262-.086-.536-.086-.81C8.315 1.587 9.874 0 11.812 0c1.007 0 1.916.427 2.555 1.116.79-.154 1.548-.449 2.22-.854-.26.82-.813 1.51-1.538 1.947.703-.076 1.386-.273 2.014-.546z"/>
</svg>
