<?xml version="1.0" standalone="no"?>
<!DOCTYPE svg PUBLIC "-//W3C//DTD SVG 20010904//EN"
 "http://www.w3.org/TR/2001/REC-SVG-20010904/DTD/svg10.dtd">
<svg version="1.0" xmlns="http://www.w3.org/2000/svg"
 width="256.000000pt" height="186.000000pt" viewBox="0 0 256.000000 186.000000"
 preserveAspectRatio="xMidYMid meet">
<metadata>
Created by potrace 1.15, written by Peter Selinger 2001-2017
</metadata>
<g transform="translate(0.000000,186.000000) scale(0.100000,-0.100000)"
fill="#000000" stroke="none">
<path d="M0 930 l0 -930 1283 2 c1264 3 1268 3 295 5 l-988 3 0 290 0 290
-285 0 -285 0 0 340 0 340 170 0 170 0 0 290 0 290 323 3 c245 2 202 3 -180 5
l-503 2 0 -930z"/>
<path d="M2330 1520 l0 -340 -183 0 c-101 0 -239 -3 -305 -7 l-122 -6 0 -244
0 -243 420 0 420 0 0 590 0 590 -115 0 -115 0 0 -340z"/>
<path d="M550 1750 c0 -17 7 -20 45 -20 l45 0 2 -222 c3 -223 3 -223 26 -226
l22 -3 0 225 0 226 45 0 c38 0 45 3 45 20 0 19 -7 20 -115 20 -108 0 -115 -1
-115 -20z"/>
<path d="M885 1758 c-2 -7 -23 -107 -45 -223 -23 -115 -44 -220 -47 -232 -4
-18 -1 -23 15 -23 23 0 25 6 43 98 l12 62 53 0 c59 0 55 5 75 -97 10 -57 14
-63 36 -63 18 0 23 4 19 18 -3 9 -23 112 -46 227 -23 116 -43 218 -46 228 -6
20 -62 24 -69 5z"/>
<path d="M1110 1525 l0 -245 90 0 c83 0 90 1 90 20 0 18 -7 20 -65 20 l-65 0
0 225 0 225 -25 0 -25 0 0 -245z"/>
<path d="M1352 1528 l3 -243 93 -3 c87 -3 92 -2 92 18 0 18 -6 20 -70 20 l-70
0 0 100 0 100 55 0 c48 0 55 2 55 20 0 18 -7 20 -55 20 l-55 0 0 85 0 85 70 0
c63 0 70 2 70 20 0 19 -7 20 -95 20 l-95 0 2 -242z"/>
<path d="M1610 1525 c0 -237 1 -245 20 -245 19 0 20 8 22 192 l3 192 66 -190
c56 -160 69 -189 88 -192 21 -3 21 -3 21 242 0 238 -1 246 -20 246 -19 0 -20
-8 -22 -176 l-3 -177 -44 124 c-84 237 -80 229 -107 229 l-24 0 0 -245z"/>
<path d="M1890 1750 c0 -17 7 -20 45 -20 l45 0 2 -222 c3 -223 3 -223 26 -226
l22 -3 0 225 0 226 45 0 c38 0 45 3 45 20 0 19 -7 20 -115 20 -108 0 -115 -1
-115 -20z"/>
<path d="M615 1171 c-11 -5 -29 -19 -40 -31 -18 -20 -20 -39 -23 -196 -3 -143
0 -179 13 -207 30 -64 121 -78 177 -28 l33 29 3 177 c4 196 -2 226 -49 250
-30 16 -82 19 -114 6z m93 -47 c21 -15 22 -21 22 -190 0 -161 -2 -176 -20
-194 -11 -11 -31 -20 -45 -20 -14 0 -34 9 -45 20 -18 18 -20 33 -20 190 0 157
2 172 20 190 24 24 57 26 88 4z"/>
<path d="M884 1146 l-34 -34 0 -176 c0 -197 7 -224 60 -246 44 -18 110 -7 137
24 29 34 36 86 31 261 l-3 147 -33 29 c-26 23 -42 29 -78 29 -39 0 -51 -5 -80
-34z m126 -26 c18 -18 20 -33 20 -190 0 -157 -2 -172 -20 -190 -24 -24 -57
-26 -88 -4 -21 15 -22 21 -22 191 0 150 2 179 17 195 21 24 68 23 93 -2z"/>
<path d="M272 928 c3 -235 4 -243 23 -243 19 0 20 8 23 108 l3 108 27 -3 c24
-3 29 -11 60 -110 27 -88 37 -108 53 -108 26 0 24 18 -13 133 -30 91 -32 99
-15 108 64 36 62 204 -2 239 -11 5 -52 10 -91 10 l-70 0 2 -242z m142 183 c12
-13 18 -37 18 -75 1 -71 -18 -96 -74 -96 l-38 0 0 95 0 95 38 0 c26 0 45 -7
56 -19z"/>
<path d="M1152 928 c3 -235 4 -243 23 -243 19 0 20 8 25 188 l5 189 34 -92
c43 -117 54 -116 101 10 l35 95 3 -197 c2 -190 3 -198 22 -198 19 0 20 8 20
246 l0 245 -27 -3 c-26 -3 -31 -12 -63 -100 -19 -54 -38 -98 -42 -98 -4 0 -10
10 -14 23 -4 12 -20 57 -36 100 -28 72 -32 77 -59 77 l-29 0 2 -242z"/>
<path d="M1840 578 c-49 -26 -60 -68 -60 -239 0 -88 5 -170 11 -188 23 -65
128 -84 180 -32 24 24 29 38 29 75 0 39 -3 46 -20 46 -17 0 -20 -7 -20 -38 0
-66 -65 -97 -110 -52 -18 18 -20 33 -20 190 0 157 2 172 20 190 24 24 57 26
88 4 16 -11 22 -25 22 -55 0 -32 3 -39 20 -39 30 0 28 79 -3 115 -27 32 -97
43 -137 23z"/>
<path d="M1200 336 c0 -239 1 -246 20 -246 19 0 20 7 21 198 l0 197 55 -155
c85 -244 84 -240 105 -240 18 0 19 10 19 245 0 238 -1 245 -20 245 -19 0 -20
-7 -21 -177 l0 -178 -63 175 c-59 162 -65 175 -90 178 l-26 3 0 -245z"/>
<path d="M1510 335 l0 -245 55 0 c101 0 140 29 145 110 5 69 0 92 -29 120 -20
20 -24 30 -15 34 27 10 46 67 42 124 -7 80 -35 102 -129 102 l-69 0 0 -245z
m146 169 c30 -71 -8 -148 -69 -142 l-32 3 -3 88 -3 87 46 0 c43 0 47 -2 61
-36z m-7 -199 c11 -11 16 -35 16 -76 0 -52 -3 -64 -24 -80 -15 -13 -36 -19
-55 -17 l-31 3 -3 84 c-2 46 0 91 3 99 7 19 72 10 94 -13z"/>
<path d="M2070 380 c0 -264 10 -290 115 -290 38 0 52 5 76 29 l29 29 0 216 c0
209 -1 216 -20 216 -19 0 -20 -7 -20 -203 0 -230 -4 -247 -65 -247 -61 0 -65
17 -65 247 l0 203 -25 0 -25 0 0 -200z"/>
</g>
</svg>
